<?xml version="1.0" encoding="utf-8"?>
<!-- Generator: Adobe Illustrator 23.0.1, SVG Export Plug-In . SVG Version: 6.00 Build 0)  -->
<svg version="1.1" id="svg5047" xmlns:svg="http://www.w3.org/2000/svg"
	 xmlns="http://www.w3.org/2000/svg" xmlns:xlink="http://www.w3.org/1999/xlink" x="0px" y="0px"
	 viewBox="-83.275 -330.472 1190.551 841.89" enable-background="new -83.275 -330.472 1190.551 841.89" xml:space="preserve">
<g id="layer1" transform="translate(-417.78125,-612.96875)">
	<path id="path4061" d="M726.878,612.995c-20.241,0-29.767,2.1-40.324,6.151l-1.879,0.684l11.447,20.333l1.366-0.513
		c7.786-3.188,16.385-4.271,32.465-4.271h17.086c24.988,0,39.301,12.44,39.301,34.344v67.321c0,21.889-14.313,34.346-39.301,34.346
		h-27.851c-25.609,0-38.104-10.266-38.104-31.611c0-21.176,12.493-31.438,38.104-31.438h38.786v-22.555h-39.982
		c-38.013,0-59.804,19.772-59.804,54.165c0,33.254,22.918,53.992,59.804,53.992h30.071c41.977,0,61.17-28.017,61.17-53.992v-73.131
		c0-25.972-19.193-53.823-61.17-53.823L726.878,612.995L726.878,612.995z M896.035,612.995c-41.981,0-61.171,27.852-61.171,53.823
		v73.131c0,25.977,19.19,53.993,61.171,53.993h25.973c21.384,0,35.397-3.123,46.645-10.424l1.366-1.024l-12.985-18.966l-1.366,0.854
		c-8.394,5.085-19.015,7.006-36.565,7.006H897.06c-25.343,0-39.299-12.135-39.299-34.345v-67.321
		c0-22.221,13.962-34.344,39.299-34.344h22.042c17.529,0,28.14,2.086,36.564,7.176l1.367,0.854l12.985-19.137l-1.366-0.854
		c-11.248-7.294-25.241-10.423-46.646-10.423L896.035,612.995L896.035,612.995z M1045.885,612.995
		c-42.117,0-61.34,27.852-61.34,53.823v73.131c0,25.977,19.188,53.993,61.17,53.993h30.071c41.986,0,60.999-28.018,60.999-53.993
		v-73.131c0-25.967-19.195-53.823-61.341-53.823H1045.885z M1223.414,613.337c-36.224,0-59.632,20.562-59.632,52.285v127.466h22.896
		V668.527c0-22.041,12.314-32.806,37.762-32.806c24.134,0,37.419,10.99,37.419,30.756v126.611h22.896V666.477
		c0-19.766,13.285-30.756,37.42-30.756c25.457,0,37.932,10.766,37.932,32.806v124.561h22.727V665.622
		c0-31.724-23.426-52.285-59.633-52.285c-24.168,0-38.761,5.975-49.894,20.333C1262.191,619.312,1247.554,613.337,1223.414,613.337z
		 M417.78,614.191v127.466c0,31.718,23.409,52.285,59.634,52.285c24.14,0,38.776-5.959,49.893-20.334
		c11.121,14.375,25.748,20.334,49.895,20.334c36.206,0,59.632-20.566,59.632-52.285V614.191h-22.727v124.562
		c0,22.029-12.484,32.637-37.932,32.637c-24.129,0-37.42-10.837-37.42-30.587V614.191h-22.726v126.611
		c0,19.744-13.284,30.586-37.419,30.586c-25.446,0-37.933-10.605-37.933-32.636V614.191H417.78z M1424.353,614.191
		c-4.801,0-8.912,1.73-12.303,5.126c-3.406,3.412-5.125,7.485-5.125,12.302c0,4.861,1.758,9.062,5.125,12.473
		c3.379,3.417,7.464,5.126,12.303,5.126c4.828,0,8.896-1.708,12.303-5.126c3.417-3.434,5.125-7.634,5.125-12.473
		c0-4.828-1.708-8.902-5.125-12.302C1433.25,615.922,1429.181,614.191,1424.353,614.191z M1424.353,616.583
		c4.155,0,7.663,1.484,10.594,4.443c2.908,2.936,4.442,6.598,4.442,10.764c0,4.183-1.534,7.641-4.442,10.594
		c-2.907,2.953-6.422,4.443-10.594,4.443c-4.161,0-7.687-1.49-10.594-4.443c-2.898-2.953-4.442-6.411-4.442-10.594
		c0-4.161,1.528-7.829,4.442-10.764C1416.69,618.068,1420.219,616.583,1424.353,616.583z M1417.347,622.051v19.137h3.247v-7.519
		h2.732c1.806,0,3.043,0.279,3.761,0.684c1.202,0.711,1.708,2.052,1.708,4.271v1.538l0.171,0.684c0.021,0.087-0.021,0.105,0,0.171
		c0.021,0.065-0.027,0.1,0,0.171h3.246l-0.171-0.171c-0.088-0.17-0.139-0.512-0.172-1.025c-0.037-0.503,0-0.919,0-1.367v-1.538
		c0-0.973-0.318-1.888-1.023-2.905c-0.694-1.022-1.749-1.644-3.247-1.879c1.197-0.191,2.089-0.434,2.733-0.854
		c1.259-0.815,1.88-2.219,1.88-3.93c0-2.427-1.103-3.964-3.075-4.785c-1.104-0.465-2.747-0.683-5.126-0.683L1417.347,622.051
		L1417.347,622.051z M1420.594,624.272h2.904c1.869,0,3.248,0.362,4.101,0.854c0.854,0.465,1.36,1.345,1.367,2.733
		c0,1.477-0.712,2.546-2.052,3.076c-0.705,0.279-1.813,0.342-3.246,0.342h-3.074V624.272z M1046.74,635.379h27.852
		c24.986,0,39.299,12.44,39.299,34.344v67.321c0,21.889-14.313,34.346-39.299,34.346h-27.852c-25.354,0-39.3-12.136-39.3-34.346
		v-67.321C1007.44,647.819,1021.758,635.379,1046.74,635.379z"/>
</g>
</svg>
